<?xml version="1.0" encoding="UTF-8"?>
<svg version="1.1" xmlns="http://www.w3.org/2000/svg" width="460" height="460">
<path d="M0 0 C151.8 0 303.6 0 460 0 C460 151.8 460 303.6 460 460 C308.2 460 156.4 460 0 460 C0 308.2 0 156.4 0 0 Z " fill="#000000" transform="translate(0,0)"/>
<path d="M0 0 C3.1875 0.75 3.1875 0.75 5.77734375 1.76953125 C10.20095665 3.0413833 14.35883757 3.08289609 18.9375 3.1875 C30.30587327 3.62782432 38.46858727 5.05684171 47.1875 12.75 C47.83332031 13.27980469 48.47914063 13.80960938 49.14453125 14.35546875 C63.06545752 26.79369282 70.26569826 47.9266389 71.39282227 66.05175781 C71.48962832 69.45358695 71.50967895 72.84688286 71.5 76.25 C71.51611328 77.38308594 71.53222656 78.51617187 71.54882812 79.68359375 C71.55807139 95.82233035 66.59418082 109.96597277 55.328125 121.76953125 C30.68914888 144.56508033 -12.87072986 157.37851862 -45.8125 156.75 C-45.92045898 157.41950684 -46.02841797 158.08901367 -46.13964844 158.77880859 C-46.96333657 162.41606715 -48.23976855 165.81816399 -49.578125 169.2890625 C-49.85340027 170.01056488 -50.12867554 170.73206726 -50.41229248 171.47543335 C-50.99541745 173.00080319 -51.58052326 174.52541709 -52.16748047 176.04931641 C-53.05080006 178.34459803 -53.92625895 180.64276067 -54.80078125 182.94140625 C-57.59445892 190.24799358 -60.47876476 197.46204754 -63.7890625 204.55419922 C-65.00815903 207.16978943 -66.10889132 209.82375291 -67.1875 212.5 C-71.38827683 222.65514897 -76.1683869 232.53915909 -81.0625 242.375 C-81.55617065 243.36935059 -81.55617065 243.36935059 -82.05981445 244.38378906 C-83.44280857 247.14059266 -84.85854173 249.82450781 -86.48046875 252.44921875 C-87.77201296 254.68006784 -88.37514738 256.42853103 -88.875 258.9375 C-89.8125 262.75 -89.8125 262.75 -91.8125 264.75 C-94.25 265.125 -94.25 265.125 -96.8125 264.75 C-99.09526734 262.93952935 -99.71342778 261.48964875 -100.09765625 258.62109375 C-100.22956271 255.13991009 -100.15825562 252.49913717 -98.6875 249.3125 C-96.8125 247.75 -96.8125 247.75 -93.9609375 247.0078125 C-84.85781205 243.37108 -80.24319923 228.61460242 -76.625 220.1875 C-75.43735278 217.35987325 -74.25727897 214.52917572 -73.078125 211.69799805 C-71.73672132 208.57349006 -70.30900793 205.49941429 -68.86328125 202.421875 C-65.67836804 195.57733252 -62.90679592 188.60271104 -60.1875 181.5625 C-59.25806545 179.17307868 -58.32838237 176.78375401 -57.3984375 174.39453125 C-56.96241211 173.27127441 -56.52638672 172.14801758 -56.07714844 170.99072266 C-54.35038166 166.56579944 -52.58832355 162.15543273 -50.8125 157.75 C-51.4725 158.08 -52.1325 158.41 -52.8125 158.75 C-54.49704289 158.85059457 -56.18551723 158.8883549 -57.87304688 158.89526367 C-59.45478699 158.90483345 -59.45478699 158.90483345 -61.06848145 158.91459656 C-62.21119507 158.91570938 -63.35390869 158.9168222 -64.53125 158.91796875 C-65.70006714 158.92129715 -66.86888428 158.92462555 -68.07312012 158.92805481 C-70.54792893 158.93312445 -73.02274459 158.93546312 -75.49755859 158.93530273 C-79.29666309 158.93749088 -83.09547812 158.95565104 -86.89453125 158.97460938 C-89.29426984 158.97754287 -91.69400981 158.97952796 -94.09375 158.98046875 C-95.80782043 158.99124702 -95.80782043 158.99124702 -97.55651855 159.00224304 C-98.61101196 158.99916641 -99.66550537 158.99608978 -100.75195312 158.99291992 C-101.6830188 158.99434494 -102.61408447 158.99576996 -103.57336426 158.99723816 C-105.8125 158.75 -105.8125 158.75 -107.8125 156.75 C-108.14583333 151.41666667 -108.14583333 151.41666667 -106.8125 148.75 C-103.95991789 149.21316426 -101.11911161 149.68630429 -98.28930664 150.27416992 C-89.48058952 152.01235582 -80.77901229 152.08870132 -71.83666992 152.06567383 C-69.22338843 152.06246735 -66.61119288 152.08621813 -63.99804688 152.11132812 C-62.33073058 152.11359721 -60.66341127 152.11430644 -58.99609375 152.11328125 C-58.21801865 152.122491 -57.43994354 152.13170074 -56.63829041 152.14118958 C-52.51352373 152.14130416 -52.51352373 152.14130416 -48.88110352 150.40356445 C-47.28662171 147.9362523 -46.32810818 145.37886063 -45.3125 142.625 C-44.9103125 141.54992187 -44.508125 140.47484375 -44.09375 139.3671875 C-42.61029566 135.17914262 -41.20277772 130.9697101 -39.8125 126.75 C-33.54342241 107.77357339 -27.02495655 88.93571057 -19.72314453 70.32836914 C-18.6763184 67.65898718 -17.63667733 64.98688148 -16.59765625 62.31445312 C-13.5205682 54.42893351 -10.41376313 46.59300117 -6.82714844 38.92163086 C-5.46291559 36.0017918 -4.22703365 33.04243887 -3 30.0625 C-2.58105469 29.04800781 -2.16210938 28.03351563 -1.73046875 26.98828125 C-1.42753906 26.24964844 -1.12460937 25.51101562 -0.8125 24.75 C-1.75029297 24.56050781 -1.75029297 24.56050781 -2.70703125 24.3671875 C-5.54144258 23.5363211 -6.2856213 22.22208932 -7.8125 19.75 C-9.56607726 14.48926821 -9.73513539 8.85888089 -7.5 3.75 C-5.11787105 0.92673606 -3.7715756 -0.33525116 0 0 Z " fill="#010101" transform="translate(310.8125,106.25)"/>
<path d="M0 0 C1.32 0 2.64 0 4 0 C7.22609842 4.83914762 6.33725327 10.11998686 6.3125 15.8125 C6.30730347 17.74222656 6.30730347 17.74222656 6.30200195 19.7109375 C6.13192312 40.05795795 3.31310187 60.1554898 0.39614868 80.25524902 C-0.2479517 84.71795519 -0.87458055 89.1830807 -1.5 93.6484375 C-1.62273788 94.52410873 -1.74547577 95.39977997 -1.87193298 96.30198669 C-3.14880059 105.42226825 -4.41437909 114.54411229 -5.67651367 123.66644287 C-5.96065036 125.71614063 -6.24676763 127.76556363 -6.53320312 129.81494141 C-9.89823657 153.9492235 -11.33894022 177.63802014 -11 202 C2.57774438 178.35085182 15.62515916 154.21639717 25.01953125 128.54296875 C25.92366033 126.19799653 26.95192402 124.03218653 28.125 121.8125 C30.02975764 118.17822242 31.11776283 114.48338049 32.2265625 110.54296875 C32.97267519 108.08984066 33.87377809 105.79637882 34.875 103.4375 C36.89635525 98.50569715 38.39761533 93.46682464 39.8671875 88.35180664 C42.11131573 80.54995459 44.5071666 72.79721866 46.90600586 65.04174805 C48.61190129 59.52182281 50.30613809 53.99915488 51.96484375 48.46484375 C52.27631348 47.42859863 52.5877832 46.39235352 52.90869141 45.32470703 C53.49374015 43.37486062 54.07565378 41.42406962 54.65380859 39.47216797 C56.15606003 34.47592625 57.88407104 29.76678378 60 25 C60.50185517 23.52837637 60.98478959 22.04997706 61.4375 20.5625 C64.40401541 11.60147157 64.40401541 11.60147157 67 8 C69.625 6.875 69.625 6.875 72 7 C76.02652855 11.02652855 74.43198146 18.646626 74.44073486 24.06481934 C74.38566263 47.96616981 69.53715691 71.31423459 63.86083984 94.4453125 C62.17502648 101.40658378 60.5939497 108.39223361 59 115.375 C58.74524902 116.48742065 58.74524902 116.48742065 58.48535156 117.62231445 C55.89027952 128.9553648 53.38948464 140.30487537 50.99023438 151.68115234 C49.849436 157.08489012 48.66340034 162.47146831 47.3984375 167.84765625 C46.37674836 172.24108408 45.50908811 176.58413493 44.9375 181.0625 C44.3941034 185.24924141 43.75232346 189.39539579 43.01171875 193.55078125 C41.04470465 205.25192339 40.63280047 217.16613293 40 229 C39.94505371 229.98693848 39.89010742 230.97387695 39.83349609 231.99072266 C39.70934096 234.4733738 39.62476818 236.95262707 39.5625 239.4375 C39.52817871 240.13311035 39.49385742 240.8287207 39.45849609 241.54541016 C39.42535628 245.32808356 40.03658296 247.39820376 42.4921875 250.16015625 C45.7810084 253.88441294 45.66668117 255.84149632 45.4375 260.58984375 C44.71145028 264.58959979 42.87306929 267.12693071 40 270 C36.7909999 270.43364866 35.44549746 270.33094097 32.8125 268.375 C29.03591243 263.42636801 28.93075762 259.69553456 29.67700195 253.6394043 C30.016947 250.8615162 30.30173545 248.08178253 30.578125 245.296875 C36.05575456 191.443215 36.05575456 191.443215 42.46166992 166.22485352 C43.00334985 163.98615548 43.46590748 161.74508539 43.90625 159.484375 C44.78494095 154.98124706 45.76357141 150.50345173 46.76953125 146.02734375 C46.93199341 145.30397324 47.09445557 144.58060272 47.26184082 143.83531189 C47.6026028 142.31914965 47.94351823 140.8030219 48.28457642 139.28692627 C51.35809452 125.60880243 54.29057015 111.91580443 56.98046875 98.15625 C57.80071085 93.96339659 58.69265973 89.79423444 59.625 85.625 C61.46440067 77.14505117 62.74055143 68.58157222 64 60 C64.10731445 59.29552734 64.21462891 58.59105469 64.32519531 57.86523438 C65.89127568 47.49430217 66.23311313 37.46418942 66 27 C62.87689371 32.90376671 60.55401964 38.77652879 58.5 45.125 C58.19376709 46.05731445 57.88753418 46.98962891 57.57202148 47.95019531 C55.61982893 53.94306887 53.83609747 59.96637149 52.1484375 66.0390625 C47.66987217 81.77706037 42.31459786 97.28414686 36.8203125 112.69189453 C36.0077762 114.97812018 35.2053404 117.26763717 34.40625 119.55859375 C30.33532325 131.21624762 26.08008774 142.73888348 21 154 C20.5963623 154.89477051 20.19272461 155.78954102 19.77685547 156.71142578 C14.38788828 168.61520031 8.90962236 180.44824181 2.96484375 192.08496094 C1.92290118 194.15302711 0.91242932 196.23462529 -0.09375 198.3203125 C-0.4441333 199.04025391 -0.7945166 199.76019531 -1.15551758 200.50195312 C-1.81796165 201.86476686 -2.47457463 203.23043928 -3.1237793 204.59960938 C-5.25718918 208.9559587 -7.77123374 212.37530558 -11 216 C-13.4375 215.625 -13.4375 215.625 -16 215 C-24.53297802 197.93404397 -14.88792937 157.46439746 -12.49023438 138.81445312 C-12.01607984 135.12511526 -11.55256473 131.43459297 -11.09135437 127.74362183 C-10.54408551 123.37023938 -9.99120656 118.9975714 -9.4375 114.625 C-9.33158539 113.78652527 -9.22567078 112.94805054 -9.11654663 112.08416748 C-7.18169374 96.82164001 -7.18169374 96.82164001 -5.98046875 90.12109375 C-4.45849702 81.28984327 -3.71099426 72.35448227 -2.875 63.4375 C-2.78528931 62.4928891 -2.69557861 61.5482782 -2.60314941 60.57504272 C-1.14378138 45.00092166 -0.44702686 29.64701316 -1 14 C-7.59235854 31.58974929 -11.35306799 50.15207542 -15.24511719 68.48803711 C-21.59526091 98.03099229 -29.06319641 127.44146999 -39 156 C-39.58394531 157.68996094 -39.58394531 157.68996094 -40.1796875 159.4140625 C-42.86356552 167.06561538 -45.79204615 174.55467426 -49 182 C-49.52835449 183.24064209 -49.52835449 183.24064209 -50.06738281 184.50634766 C-54.74274232 195.48136097 -59.53386845 206.33486913 -64.95703125 216.9609375 C-71.26041431 229.3343587 -77.00784375 241.99615755 -82.83618164 254.59762573 C-90.787312 271.78165564 -90.787312 271.78165564 -94.1875 278.6875 C-94.69667969 279.72261719 -95.20585938 280.75773437 -95.73046875 281.82421875 C-97 284 -97 284 -99 285 C-101.875 285.4375 -101.875 285.4375 -105 285 C-108.8847003 280.2753645 -110.39998442 276.1826217 -110.265625 270.046875 C-109.70235488 265.70638171 -107.31737541 263.04779666 -103.9765625 260.390625 C-103.22117187 259.82859375 -102.46578125 259.2665625 -101.6875 258.6875 C-91.63094713 251.10413847 -86.11027951 239.75531493 -80 229 C-79.59426758 228.28763184 -79.18853516 227.57526367 -78.77050781 226.84130859 C-76.15509598 222.24146101 -73.57092628 217.62482365 -71 213 C-70.46761719 212.04867187 -69.93523437 211.09734375 -69.38671875 210.1171875 C-61.14321282 195.22999351 -53.88327529 179.97888695 -48 164 C-47.67523682 163.11812012 -47.35047363 162.23624023 -47.01586914 161.32763672 C-44.29399591 153.90276027 -41.62617839 146.45924935 -39 139 C-38.71721191 138.19691406 -38.43442383 137.39382812 -38.14306641 136.56640625 C-28.75227557 109.46604182 -23.17489195 80.84529828 -16.89379883 52.91137695 C-8.94922623 17.67383497 -8.94922623 17.67383497 -4.25 7.875 C-3.94707031 7.20597656 -3.64414063 6.53695312 -3.33203125 5.84765625 C-1.20415296 1.20415296 -1.20415296 1.20415296 0 0 Z " fill="#F0F0F0" transform="translate(146,112)"/>
<path d="M0 0 C3.1875 0.75 3.1875 0.75 5.77734375 1.76953125 C10.20095665 3.0413833 14.35883757 3.08289609 18.9375 3.1875 C30.30587327 3.62782432 38.46858727 5.05684171 47.1875 12.75 C47.83332031 13.27980469 48.47914063 13.80960938 49.14453125 14.35546875 C63.06545752 26.79369282 70.26569826 47.9266389 71.39282227 66.05175781 C71.48962832 69.45358695 71.50967895 72.84688286 71.5 76.25 C71.51611328 77.38308594 71.53222656 78.51617187 71.54882812 79.68359375 C71.55807139 95.82233035 66.59418082 109.96597277 55.328125 121.76953125 C30.68914888 144.56508033 -12.87072986 157.37851862 -45.8125 156.75 C-45.92045898 157.41950684 -46.02841797 158.08901367 -46.13964844 158.77880859 C-46.96333657 162.41606715 -48.23976855 165.81816399 -49.578125 169.2890625 C-49.85340027 170.01056488 -50.12867554 170.73206726 -50.41229248 171.47543335 C-50.99541745 173.00080319 -51.58052326 174.52541709 -52.16748047 176.04931641 C-53.05080006 178.34459803 -53.92625895 180.64276067 -54.80078125 182.94140625 C-57.59445892 190.24799358 -60.47876476 197.46204754 -63.7890625 204.55419922 C-65.00815903 207.16978943 -66.10889132 209.82375291 -67.1875 212.5 C-71.38827683 222.65514897 -76.1683869 232.53915909 -81.0625 242.375 C-81.55617065 243.36935059 -81.55617065 243.36935059 -82.05981445 244.38378906 C-83.44280857 247.14059266 -84.85854173 249.82450781 -86.48046875 252.44921875 C-87.77201296 254.68006784 -88.37514738 256.42853103 -88.875 258.9375 C-89.8125 262.75 -89.8125 262.75 -91.8125 264.75 C-94.25 265.125 -94.25 265.125 -96.8125 264.75 C-99.09526734 262.93952935 -99.71342778 261.48964875 -100.09765625 258.62109375 C-100.22956271 255.13991009 -100.15825562 252.49913717 -98.6875 249.3125 C-96.8125 247.75 -96.8125 247.75 -93.9609375 247.0078125 C-84.85781205 243.37108 -80.24319923 228.61460242 -76.625 220.1875 C-75.43735278 217.35987325 -74.25727897 214.52917572 -73.078125 211.69799805 C-71.73672132 208.57349006 -70.30900793 205.49941429 -68.86328125 202.421875 C-65.67836804 195.57733252 -62.90679592 188.60271104 -60.1875 181.5625 C-59.25806545 179.17307868 -58.32838237 176.78375401 -57.3984375 174.39453125 C-56.96241211 173.27127441 -56.52638672 172.14801758 -56.07714844 170.99072266 C-54.35038166 166.56579944 -52.58832355 162.15543273 -50.8125 157.75 C-51.4725 158.08 -52.1325 158.41 -52.8125 158.75 C-54.49704289 158.85059457 -56.18551723 158.8883549 -57.87304688 158.89526367 C-59.45478699 158.90483345 -59.45478699 158.90483345 -61.06848145 158.91459656 C-62.21119507 158.91570938 -63.35390869 158.9168222 -64.53125 158.91796875 C-65.70006714 158.92129715 -66.86888428 158.92462555 -68.07312012 158.92805481 C-70.54792893 158.93312445 -73.02274459 158.93546312 -75.49755859 158.93530273 C-79.29666309 158.93749088 -83.09547812 158.95565104 -86.89453125 158.97460938 C-89.29426984 158.97754287 -91.69400981 158.97952796 -94.09375 158.98046875 C-95.80782043 158.99124702 -95.80782043 158.99124702 -97.55651855 159.00224304 C-98.61101196 158.99916641 -99.66550537 158.99608978 -100.75195312 158.99291992 C-101.6830188 158.99434494 -102.61408447 158.99576996 -103.57336426 158.99723816 C-105.8125 158.75 -105.8125 158.75 -107.8125 156.75 C-108.14583333 151.41666667 -108.14583333 151.41666667 -106.8125 148.75 C-103.95991789 149.21316426 -101.11911161 149.68630429 -98.28930664 150.27416992 C-89.48058952 152.01235582 -80.77901229 152.08870132 -71.83666992 152.06567383 C-69.22338843 152.06246735 -66.61119288 152.08621813 -63.99804688 152.11132812 C-62.33073058 152.11359721 -60.66341127 152.11430644 -58.99609375 152.11328125 C-58.21801865 152.122491 -57.43994354 152.13170074 -56.63829041 152.14118958 C-52.51352373 152.14130416 -52.51352373 152.14130416 -48.88110352 150.40356445 C-47.28662171 147.9362523 -46.32810818 145.37886063 -45.3125 142.625 C-44.9103125 141.54992187 -44.508125 140.47484375 -44.09375 139.3671875 C-42.61029566 135.17914262 -41.20277772 130.9697101 -39.8125 126.75 C-33.54342241 107.77357339 -27.02495655 88.93571057 -19.72314453 70.32836914 C-18.6763184 67.65898718 -17.63667733 64.98688148 -16.59765625 62.31445312 C-13.5205682 54.42893351 -10.41376313 46.59300117 -6.82714844 38.92163086 C-5.46291559 36.0017918 -4.22703365 33.04243887 -3 30.0625 C-2.58105469 29.04800781 -2.16210938 28.03351563 -1.73046875 26.98828125 C-1.42753906 26.24964844 -1.12460937 25.51101562 -0.8125 24.75 C-1.75029297 24.56050781 -1.75029297 24.56050781 -2.70703125 24.3671875 C-5.54144258 23.5363211 -6.2856213 22.22208932 -7.8125 19.75 C-9.56607726 14.48926821 -9.73513539 8.85888089 -7.5 3.75 C-5.11787105 0.92673606 -3.7715756 -0.33525116 0 0 Z M14.1875 17.75 C14.6825 19.235 14.6825 19.235 15.1875 20.75 C15.3322963 22.70475009 15.40817502 24.6651138 15.4375 26.625 C15.46328125 27.65367187 15.4890625 28.68234375 15.515625 29.7421875 C15.14173604 33.16950295 14.2208258 34.99327945 12.1875 37.75 C10.52901823 38.76351664 8.86084039 39.76120795 7.1875 40.75 C1.01969063 45.74780338 -2.31958011 51.72999964 -5.8125 58.75 C-6.45845323 60.00842003 -7.10565335 61.26620056 -7.75390625 62.5234375 C-18.22826253 82.97635218 -26.49093824 104.55127692 -34.43359375 126.09375 C-35.41482026 128.69552908 -36.42004849 131.27138292 -37.47265625 133.84375 C-37.88692871 134.85767822 -37.88692871 134.85767822 -38.30957031 135.89208984 C-39.07175641 137.74552561 -39.8422116 139.59555485 -40.61328125 141.4453125 C-41.74916253 144.5754609 -42.38693338 147.45561366 -42.8125 150.75 C-10.25817355 148.89887163 28.1779735 139.18968015 52.1875 115.75 C64.69839081 101.3324837 66.9488656 87.09389102 66.1875 68.75 C64.81270886 50.0332006 57.99060124 33.57732973 44.1875 20.75 C36.76408838 14.93436619 22.59477045 12.38228117 14.1875 17.75 Z " fill="#F4F4F4" transform="translate(310.8125,106.25)"/>
<path d="M0 0 C2.73063196 0.21004861 4.45782304 0.57945701 6.63671875 2.26953125 C8.37026544 4.46999309 8.40275351 5.72464945 8.375 8.5 C8.38660156 9.66015625 8.38660156 9.66015625 8.3984375 10.84375 C7.90684224 13.50414788 7.16643864 14.41331254 5 16 C4.01 16 3.02 16 2 16 C2.48094019 20.44521729 2.97820024 24.8882469 3.48925781 29.33007812 C3.66018383 30.83448311 3.826999 32.33936211 3.98925781 33.84472656 C5.35054911 46.43246958 7.04134616 58.99092704 13.75 70 C16.36005893 74.2989206 17.39130551 76.94312883 17 82 C15.02 82.99 15.02 82.99 13 84 C12.071875 82.453125 12.071875 82.453125 11.125 80.875 C4.04975221 69.62615098 -3.77995138 59.54594135 -13 50 C-14.14275391 48.77990234 -14.14275391 48.77990234 -15.30859375 47.53515625 C-22.39680732 40.14370359 -30.62612427 32.72850867 -40.6875 30 C-41.780625 29.67 -42.87375 29.34 -44 29 C-45.11445498 26.77109005 -45.16480286 25.46944894 -45.1875 23 C-45.20167969 22.29875 -45.21585937 21.5975 -45.23046875 20.875 C-45 19 -45 19 -43 17 C-41.125 17 -41.125 17 -39 18 C-38.42636719 18.9178125 -37.85273438 19.835625 -37.26171875 20.78125 C-34.81497843 24.26331222 -32.19128984 26.23411127 -28.6875 28.5 C-18.02773781 35.73705899 -9.05360606 44.89118903 0 54 C-0.53244178 48.068551 -1.23730667 42.19703859 -2.15551758 36.31323242 C-5.75862148 13.06705215 -5.75862148 13.06705215 -2 2 C-1.34 1.34 -0.68 0.68 0 0 Z " fill="#F3F3F3" transform="translate(390,243)"/>
<path d="M0 0 C2.93453261 0.36681658 3.86437246 0.86437246 6 3 C6.66935457 7.16487289 6.85150134 9.61750625 4.609375 13.2578125 C3.36908653 14.89175775 2.12538112 16.52311296 0.87890625 18.15234375 C-2.52071111 23.30477838 -4.07812205 29.17742161 -6 35 C-6.52032544 36.27971933 -7.05688195 37.55326927 -7.625 38.8125 C-8.751033 41.42284922 -9.60854844 43.91650053 -10.4375 46.625 C-11.6882704 50.41619525 -12.98690404 53.25276545 -16 56 C-18.5625 56.625 -18.5625 56.625 -21 56 C-23.56807522 53.16626183 -24.21502349 50.65869271 -24.375 46.9375 C-23.84313725 41.35294118 -23.84313725 41.35294118 -21 39 C-18.38671875 38.90625 -18.38671875 38.90625 -16 39 C-14.55498022 35.85756908 -13.12041384 32.71046731 -11.6875 29.5625 C-11.28337891 28.68400391 -10.87925781 27.80550781 -10.46289062 26.90039062 C-7.30321197 19.9388222 -4.67791368 13.01213675 -2.9375 5.5625 C-2 2 -2 2 0 0 Z " fill="#F3F3F3" transform="translate(402,50)"/>
<path d="M0 0 C2.4375 0.875 2.4375 0.875 4.4375 3.875 C4.7778125 5.8240625 4.7778125 5.8240625 5.125 7.8125 C6.44534621 14.24656805 9.99275365 19.37536158 13.4375 24.875 C13.89769531 25.679375 14.35789062 26.48375 14.83203125 27.3125 C17.193369 31.39049281 19.03980116 33.79830888 23.4375 35.875 C25.08599053 37.52349053 24.6477571 39.42546635 24.6875 41.6875 C24.71328125 42.56019531 24.7390625 43.43289062 24.765625 44.33203125 C24.38084919 47.31404377 23.40649223 48.6521114 21.4375 50.875 C19.0625 50.625 19.0625 50.625 16.4375 49.875 C14.74346452 47.16692919 14.09915685 44.62137148 13.5625 41.5 C12.65080128 37.1799507 11.03829708 34.48721817 8.4375 30.875 C7.37354192 29.03353409 6.33368275 27.17802654 5.3125 25.3125 C4.81492187 24.40371094 4.31734375 23.49492188 3.8046875 22.55859375 C2.4375 19.875 2.4375 19.875 1.3828125 17.0703125 C1.07085937 16.34585938 0.75890625 15.62140625 0.4375 14.875 C-0.88553717 14.5028958 -2.21987935 14.16869827 -3.5625 13.875 C-6.14915971 10.51234238 -5.93459556 6.96805121 -5.5625 2.875 C-3.91229442 0.0957064 -3.2342745 -0.15776949 0 0 Z " fill="#F3F3F3" transform="translate(290.5625,43.125)"/>
<path d="M0 0 C3.0625 0.25 3.0625 0.25 6 1 C7.62651522 4.25303044 7.11453156 7.39225602 7 11 C6.67 11.33 6.34 11.66 6 12 C5.91752135 13.39146038 5.90356155 14.78708251 5.91821289 16.1809082 C5.9247438 17.06885574 5.93127472 17.95680328 5.93800354 18.87165833 C5.94943893 19.83826889 5.96087433 20.80487946 5.97265625 21.80078125 C5.98530605 23.8300764 5.99766675 25.85937337 6.00976562 27.88867188 C6.03457635 31.10153805 6.06251884 34.31431109 6.09594727 37.52709961 C6.12614391 40.61833292 6.143927 43.70944749 6.16015625 46.80078125 C6.17361588 47.76131912 6.1870755 48.72185699 6.20094299 49.71150208 C6.20432175 50.6089061 6.2077005 51.50631012 6.21118164 52.4309082 C6.22236778 53.61219048 6.22236778 53.61219048 6.23377991 54.81733704 C5.97196248 57.26176949 5.21868112 58.88270856 4 61 C1.1875 61.3125 1.1875 61.3125 -2 61 C-4.33454865 58.66545135 -4.98982072 56.99926577 -5.0234375 53.69921875 C-4.82447401 51.38903161 -4.61474951 49.23713357 -4 47 C-3.01 46.505 -3.01 46.505 -2 46 C-0.82620028 42.47860084 -0.87046963 39.67584274 -0.8671875 35.9609375 C-0.86623077 35.27947662 -0.86527405 34.59801575 -0.86428833 33.89590454 C-0.86360885 32.45859688 -0.86544696 31.02128612 -0.86962891 29.58398438 C-0.874997 27.37623272 -0.8696677 25.16868297 -0.86328125 22.9609375 C-0.86394175 21.56510372 -0.86522233 20.16927006 -0.8671875 18.7734375 C-0.86831543 17.49903809 -0.86944336 16.22463867 -0.87060547 14.91162109 C-0.66698793 12.10800666 -0.66698793 12.10800666 -2 11 C-2.16796875 9.00390625 -2.16796875 9.00390625 -2.1875 6.5625 C-2.20167969 5.75941406 -2.21585937 4.95632812 -2.23046875 4.12890625 C-2 2 -2 2 0 0 Z " fill="#F7F7F7" transform="translate(351,38)"/>
<path d="M0 0 C3.91260733 2.40091813 5.8603576 4.54503427 7 9 C7.54796821 14.80846303 6.26297896 18.74988882 4 24 C3 25 3 25 -0.25 25.4375 C-4 25 -4 25 -6.703125 22.484375 C-9.61566164 18.72929105 -9.68717771 15.4281321 -9.5 10.8125 C-9.50257813 10.10158203 -9.50515625 9.39066406 -9.5078125 8.65820312 C-9.45183211 5.6828456 -9.36329586 3.52709399 -7.6484375 1.0390625 C-4.98018656 -0.64282079 -3.07724756 -0.43081466 0 0 Z " fill="#F5F5F5" transform="translate(333,175)"/>
</svg>
